# Blender v2.90.0 OBJ File: 'курсач.blend'
# www.blender.org
mtllib Крепеж.mtl
o крепеж_Сфера.003
v 0.000000 -0.412202 -0.040818
v 0.000000 -0.429634 -0.070698
v 0.000000 -0.453447 -0.081635
v 0.000000 -0.477259 -0.070698
v 0.000000 -0.494691 -0.040818
v -0.000000 -0.405821 -0.000000
v 0.035349 -0.412202 -0.020409
v 0.061227 -0.429634 -0.035349
v 0.070698 -0.453447 -0.040818
v 0.061227 -0.477259 -0.035349
v 0.035349 -0.494691 -0.020409
v 0.035349 -0.412202 0.020409
v 0.061227 -0.429634 0.035349
v 0.070698 -0.453447 0.040818
v 0.061227 -0.477259 0.035349
v 0.035349 -0.494691 0.020409
v -0.000000 -0.412202 0.040818
v -0.000000 -0.429634 0.070698
v -0.000000 -0.453447 0.081635
v -0.000000 -0.477259 0.070698
v -0.000000 -0.494691 0.040818
v 0.000000 -0.501072 -0.000000
v -0.035349 -0.412202 0.020409
v -0.061227 -0.429634 0.035349
v -0.070698 -0.453447 0.040818
v -0.061227 -0.477259 0.035349
v -0.035349 -0.494691 0.020409
v -0.035349 -0.412202 -0.020409
v -0.061227 -0.429634 -0.035349
v -0.070698 -0.453447 -0.040818
v -0.061227 -0.477259 -0.035349
v -0.035349 -0.494691 -0.020409
v 0.000000 -0.501359 -0.086558
v 0.000000 -0.453637 -0.086558
v 0.019810 -0.501359 -0.084243
v 0.019810 -0.453637 -0.084243
v 0.038551 -0.501359 -0.077421
v 0.038551 -0.453637 -0.077421
v 0.055215 -0.501359 -0.066461
v 0.055215 -0.453637 -0.066461
v 0.068901 -0.501359 -0.051954
v 0.068901 -0.453637 -0.051954
v 0.078873 -0.501359 -0.034682
v 0.078873 -0.453637 -0.034682
v 0.084594 -0.501359 -0.015575
v 0.084594 -0.453637 -0.015575
v 0.085753 -0.501359 0.004335
v 0.085753 -0.453637 0.004335
v 0.082290 -0.501359 0.023977
v 0.082290 -0.453637 0.023977
v 0.074390 -0.501359 0.042290
v 0.074390 -0.453637 0.042290
v 0.062480 -0.501359 0.058288
v 0.062480 -0.453637 0.058288
v 0.047202 -0.501359 0.071108
v 0.047202 -0.453637 0.071108
v 0.029379 -0.501359 0.080059
v 0.029379 -0.453637 0.080059
v 0.009972 -0.501359 0.084658
v 0.009972 -0.453637 0.084658
v -0.009972 -0.501359 0.084658
v -0.009972 -0.453637 0.084658
v -0.029379 -0.501359 0.080059
v -0.029379 -0.453637 0.080059
v -0.047202 -0.501359 0.071108
v -0.047202 -0.453637 0.071108
v -0.062480 -0.501359 0.058288
v -0.062480 -0.453637 0.058288
v -0.074390 -0.501359 0.042290
v -0.074390 -0.453637 0.042290
v -0.082290 -0.501359 0.023977
v -0.082290 -0.453637 0.023977
v -0.085753 -0.501359 0.004335
v -0.085753 -0.453637 0.004335
v -0.084594 -0.501359 -0.015575
v -0.084594 -0.453637 -0.015575
v -0.078874 -0.501359 -0.034682
v -0.078874 -0.453637 -0.034682
v -0.068901 -0.501359 -0.051954
v -0.068901 -0.453637 -0.051954
v -0.055215 -0.501359 -0.066461
v -0.055215 -0.453637 -0.066461
v -0.038551 -0.501359 -0.077421
v -0.038551 -0.453637 -0.077421
v -0.019810 -0.501359 -0.084243
v -0.019810 -0.453637 -0.084243
vt 0.666667 0.166667
vt 0.666667 0.333333
vt 0.500000 0.333333
vt 0.500000 0.166667
vt 0.666667 0.500000
vt 0.666667 0.666667
vt 0.500000 0.666667
vt 0.500000 0.500000
vt 0.666667 0.833333
vt 0.583333 1.000000
vt 0.500000 0.833333
vt 0.583333 0.000000
vt 0.333333 0.333333
vt 0.333333 0.166667
vt 0.333333 0.666667
vt 0.333333 0.500000
vt 0.416667 1.000000
vt 0.333333 0.833333
vt 0.416667 0.000000
vt 0.166667 0.666667
vt 0.166667 0.500000
vt 0.250000 1.000000
vt 0.166667 0.833333
vt 0.250000 0.000000
vt 0.166667 0.166667
vt 0.166667 0.333333
vt 0.083333 1.000000
vt 0.000000 0.833333
vt 0.083333 0.000000
vt 0.000000 0.166667
vt 0.000000 0.500000
vt 0.000000 0.333333
vt 0.000000 0.666667
vt 0.916667 0.000000
vt 1.000000 0.166667
vt 0.833333 0.166667
vt 1.000000 0.333333
vt 1.000000 0.500000
vt 0.833333 0.500000
vt 0.833333 0.333333
vt 1.000000 0.666667
vt 1.000000 0.833333
vt 0.833333 0.833333
vt 0.833333 0.666667
vt 0.916667 1.000000
vt 0.750000 0.000000
vt 0.750000 1.000000
vt 1.000000 0.500000
vt 1.000000 1.000000
vt 0.962963 1.000000
vt 0.962963 0.500000
vt 0.925926 1.000000
vt 0.925926 0.500000
vt 0.888889 1.000000
vt 0.888889 0.500000
vt 0.851852 1.000000
vt 0.851852 0.500000
vt 0.814815 1.000000
vt 0.814815 0.500000
vt 0.777778 1.000000
vt 0.777778 0.500000
vt 0.740741 1.000000
vt 0.740741 0.500000
vt 0.703704 1.000000
vt 0.703704 0.500000
vt 0.666667 1.000000
vt 0.666667 0.500000
vt 0.629630 1.000000
vt 0.629630 0.500000
vt 0.592593 1.000000
vt 0.592593 0.500000
vt 0.555556 1.000000
vt 0.555556 0.500000
vt 0.518519 1.000000
vt 0.518519 0.500000
vt 0.481482 1.000000
vt 0.481482 0.500000
vt 0.444445 1.000000
vt 0.444445 0.500000
vt 0.407408 1.000000
vt 0.407408 0.500000
vt 0.370371 1.000000
vt 0.370371 0.500000
vt 0.333334 1.000000
vt 0.333334 0.500000
vt 0.296297 1.000000
vt 0.296297 0.500000
vt 0.259259 1.000000
vt 0.259259 0.500000
vt 0.222222 1.000000
vt 0.222222 0.500000
vt 0.185185 1.000000
vt 0.185185 0.500000
vt 0.148148 1.000000
vt 0.148148 0.500000
vt 0.111111 1.000000
vt 0.111111 0.500000
vt 0.074074 1.000000
vt 0.074074 0.500000
vt 0.305348 0.483531
vt 0.250000 0.490000
vt 0.194652 0.483531
vt 0.142288 0.464472
vt 0.095731 0.433850
vt 0.057490 0.393318
vt 0.029628 0.345059
vt 0.013646 0.291675
vt 0.010406 0.236045
vt 0.020083 0.181167
vt 0.042154 0.130000
vt 0.075430 0.085302
vt 0.118118 0.049483
vt 0.167915 0.024474
vt 0.222138 0.011623
vt 0.277862 0.011623
vt 0.332085 0.024474
vt 0.381882 0.049483
vt 0.424570 0.085302
vt 0.457846 0.130000
vt 0.479917 0.181167
vt 0.489594 0.236045
vt 0.486354 0.291676
vt 0.470372 0.345059
vt 0.442510 0.393318
vt 0.404269 0.433851
vt 0.357712 0.464472
vt 0.037037 1.000000
vt 0.037037 0.500000
vt 0.000000 1.000000
vt 0.000000 0.500000
vt 0.750000 0.490000
vt 0.805348 0.483531
vt 0.857712 0.464472
vt 0.904269 0.433851
vt 0.942510 0.393318
vt 0.970372 0.345059
vt 0.986354 0.291676
vt 0.989594 0.236045
vt 0.979917 0.181167
vt 0.957846 0.130000
vt 0.924570 0.085302
vt 0.881882 0.049483
vt 0.832085 0.024474
vt 0.777862 0.011623
vt 0.722138 0.011623
vt 0.667915 0.024474
vt 0.618118 0.049483
vt 0.575430 0.085302
vt 0.542154 0.130000
vt 0.520083 0.181167
vt 0.510406 0.236045
vt 0.513646 0.291675
vt 0.529628 0.345059
vt 0.557490 0.393318
vt 0.595731 0.433850
vt 0.642288 0.464472
vt 0.694652 0.483531
vn 0.2793 -0.8294 -0.4838
vn 0.4646 0.3696 -0.8047
vn 0.0888 0.9841 -0.1538
vn 0.0888 -0.9841 -0.1538
vn 0.4646 -0.3696 -0.8047
vn 0.2793 0.8294 -0.4838
vn 0.5587 -0.8294 0.0000
vn 0.9292 0.3696 0.0000
vn 0.1776 0.9841 0.0000
vn 0.1776 -0.9841 0.0000
vn 0.9292 -0.3696 0.0000
vn 0.5587 0.8294 0.0000
vn 0.4646 0.3696 0.8047
vn 0.0888 0.9841 0.1538
vn 0.0888 -0.9841 0.1538
vn 0.4646 -0.3696 0.8047
vn 0.2793 0.8294 0.4838
vn 0.2793 -0.8294 0.4838
vn -0.0888 0.9841 0.1538
vn -0.0888 -0.9841 0.1538
vn -0.4646 -0.3696 0.8047
vn -0.2793 0.8294 0.4838
vn -0.2793 -0.8294 0.4838
vn -0.4646 0.3696 0.8047
vn -0.1776 -0.9841 -0.0000
vn -0.9292 -0.3696 0.0000
vn -0.5587 0.8294 0.0000
vn -0.5587 -0.8294 0.0000
vn -0.9292 0.3696 -0.0000
vn -0.1776 0.9841 0.0000
vn -0.0888 -0.9841 -0.1538
vn -0.4646 -0.3696 -0.8047
vn -0.2793 0.8294 -0.4838
vn -0.2793 -0.8294 -0.4838
vn -0.4646 0.3696 -0.8047
vn -0.0888 0.9841 -0.1538
vn 0.1161 0.0000 -0.9932
vn 0.3420 0.0000 -0.9397
vn 0.5495 0.0000 -0.8355
vn 0.7274 0.0000 -0.6862
vn 0.8660 0.0000 -0.5000
vn 0.9580 0.0000 -0.2868
vn 0.9983 0.0000 -0.0581
vn 0.9848 0.0000 0.1736
vn 0.9182 0.0000 0.3961
vn 0.8021 0.0000 0.5972
vn 0.6428 0.0000 0.7660
vn 0.4488 0.0000 0.8936
vn 0.2306 0.0000 0.9730
vn 0.0000 0.0000 1.0000
vn -0.2306 0.0000 0.9730
vn -0.4488 0.0000 0.8936
vn -0.6428 0.0000 0.7660
vn -0.8021 0.0000 0.5972
vn -0.9182 0.0000 0.3961
vn -0.9848 0.0000 0.1736
vn -0.9983 0.0000 -0.0581
vn -0.9580 0.0000 -0.2868
vn -0.8660 0.0000 -0.5000
vn -0.7274 0.0000 -0.6862
vn -0.5495 0.0000 -0.8355
vn 0.0000 1.0000 0.0000
vn -0.3420 0.0000 -0.9397
vn -0.1161 0.0000 -0.9932
vn 0.0000 -1.0000 0.0000
usemtl Материал.223
s off
f 5/1/1 4/2/1 10/3/1 11/4/1
f 3/5/2 2/6/2 8/7/2 9/8/2
f 1/9/3 6/10/3 7/11/3
f 22/12/4 5/1/4 11/4/4
f 4/2/5 3/5/5 9/8/5 10/3/5
f 2/6/6 1/9/6 7/11/6 8/7/6
f 11/4/7 10/3/7 15/13/7 16/14/7
f 9/8/8 8/7/8 13/15/8 14/16/8
f 7/11/9 6/17/9 12/18/9
f 22/19/10 11/4/10 16/14/10
f 10/3/11 9/8/11 14/16/11 15/13/11
f 8/7/12 7/11/12 12/18/12 13/15/12
f 14/16/13 13/15/13 18/20/13 19/21/13
f 12/18/14 6/22/14 17/23/14
f 22/24/15 16/14/15 21/25/15
f 15/13/16 14/16/16 19/21/16 20/26/16
f 13/15/17 12/18/17 17/23/17 18/20/17
f 16/14/18 15/13/18 20/26/18 21/25/18
f 17/23/19 6/27/19 23/28/19
f 22/29/20 21/25/20 27/30/20
f 20/26/21 19/21/21 25/31/21 26/32/21
f 18/20/22 17/23/22 23/28/22 24/33/22
f 21/25/23 20/26/23 26/32/23 27/30/23
f 19/21/24 18/20/24 24/33/24 25/31/24
f 22/34/25 27/35/25 32/36/25
f 26/37/26 25/38/26 30/39/26 31/40/26
f 24/41/27 23/42/27 28/43/27 29/44/27
f 27/35/28 26/37/28 31/40/28 32/36/28
f 25/38/29 24/41/29 29/44/29 30/39/29
f 23/42/30 6/45/30 28/43/30
f 22/46/31 32/36/31 5/1/31
f 31/40/32 30/39/32 3/5/32 4/2/32
f 29/44/33 28/43/33 1/9/33 2/6/33
f 32/36/34 31/40/34 4/2/34 5/1/34
f 30/39/35 29/44/35 2/6/35 3/5/35
f 28/43/36 6/47/36 1/9/36
f 33/48/37 34/49/37 36/50/37 35/51/37
f 35/51/38 36/50/38 38/52/38 37/53/38
f 37/53/39 38/52/39 40/54/39 39/55/39
f 39/55/40 40/54/40 42/56/40 41/57/40
f 41/57/41 42/56/41 44/58/41 43/59/41
f 43/59/42 44/58/42 46/60/42 45/61/42
f 45/61/43 46/60/43 48/62/43 47/63/43
f 47/63/44 48/62/44 50/64/44 49/65/44
f 49/65/45 50/64/45 52/66/45 51/67/45
f 51/67/46 52/66/46 54/68/46 53/69/46
f 53/69/47 54/68/47 56/70/47 55/71/47
f 55/71/48 56/70/48 58/72/48 57/73/48
f 57/73/49 58/72/49 60/74/49 59/75/49
f 59/75/50 60/74/50 62/76/50 61/77/50
f 61/77/51 62/76/51 64/78/51 63/79/51
f 63/79/52 64/78/52 66/80/52 65/81/52
f 65/81/53 66/80/53 68/82/53 67/83/53
f 67/83/54 68/82/54 70/84/54 69/85/54
f 69/85/55 70/84/55 72/86/55 71/87/55
f 71/87/56 72/86/56 74/88/56 73/89/56
f 73/89/57 74/88/57 76/90/57 75/91/57
f 75/91/58 76/90/58 78/92/58 77/93/58
f 77/93/59 78/92/59 80/94/59 79/95/59
f 79/95/60 80/94/60 82/96/60 81/97/60
f 81/97/61 82/96/61 84/98/61 83/99/61
f 36/100/62 34/101/62 86/102/62 84/103/62 82/104/62 80/105/62 78/106/62 76/107/62 74/108/62 72/109/62 70/110/62 68/111/62 66/112/62 64/113/62 62/114/62 60/115/62 58/116/62 56/117/62 54/118/62 52/119/62 50/120/62 48/121/62 46/122/62 44/123/62 42/124/62 40/125/62 38/126/62
f 83/99/63 84/98/63 86/127/63 85/128/63
f 85/128/64 86/127/64 34/129/64 33/130/64
f 33/131/65 35/132/65 37/133/65 39/134/65 41/135/65 43/136/65 45/137/65 47/138/65 49/139/65 51/140/65 53/141/65 55/142/65 57/143/65 59/144/65 61/145/65 63/146/65 65/147/65 67/148/65 69/149/65 71/150/65 73/151/65 75/152/65 77/153/65 79/154/65 81/155/65 83/156/65 85/157/65
